<?xml version="1.0" encoding="utf-8"?>
<!-- Generator: Adobe Illustrator 24.3.2, SVG Export Plug-In . SVG Version: 6.00 Build 0)  -->
<svg version="1.1" id="Layer_1" xmlns="http://www.w3.org/2000/svg" xmlns:xlink="http://www.w3.org/1999/xlink" x="0px" y="0px"
	 viewBox="0 0 415.01 205.51" style="enable-background:new 0 0 415.01 205.51;" xml:space="preserve">
<style type="text/css">
	.st0{fill:url(#SVGID_1_);}
	.st1{fill:url(#SVGID_2_);}
	.st2{fill:url(#SVGID_3_);}
	.st3{fill:url(#SVGID_4_);}
	.st4{fill:url(#SVGID_5_);}
	.st5{fill:#467C9D;}
	.st6{fill:url(#SVGID_6_);}
	.st7{fill:url(#SVGID_7_);}
</style>
<g>
	<radialGradient id="SVGID_1_" cx="111.0076" cy="122.8071" r="68.7888" gradientUnits="userSpaceOnUse">
		<stop  offset="0" style="stop-color:#3B6986"/>
		<stop  offset="0.9138" style="stop-color:#1F395A"/>
		<stop  offset="1" style="stop-color:#1C3557"/>
	</radialGradient>
	<path class="st0" d="M137.52,49.59h-25.98h-0.02H85.48c3.57,6.67,6.17,13.94,7.6,21.61L137.52,49.59z"/>
	<radialGradient id="SVGID_2_" cx="111.777" cy="122.8071" r="68.1249" gradientUnits="userSpaceOnUse">
		<stop  offset="0" style="stop-color:#3B6986"/>
		<stop  offset="0.9138" style="stop-color:#1F395A"/>
		<stop  offset="1" style="stop-color:#1C3557"/>
	</radialGradient>
	<path class="st1" d="M138.93,90.1l34.55-17.86V55.6c0-3.32-2.69-6.01-6.01-6.01h-12.88l-29.4,14.3c-0.78,0.38-1.06,1.34-0.62,2.08
		L138.93,90.1z"/>
	<radialGradient id="SVGID_3_" cx="111.0076" cy="122.8071" r="68.7888" gradientUnits="userSpaceOnUse">
		<stop  offset="0" style="stop-color:#3B6986"/>
		<stop  offset="0.9138" style="stop-color:#1F395A"/>
		<stop  offset="1" style="stop-color:#1C3557"/>
	</radialGradient>
	<path class="st2" d="M166.61,136.62h0.86c3.32,0,6.01-2.69,6.01-6.01V80.63l-30.73,15.89L166.61,136.62z"/>
	<radialGradient id="SVGID_4_" cx="111.0076" cy="122.8071" r="68.7888" gradientUnits="userSpaceOnUse">
		<stop  offset="0" style="stop-color:#3B6986"/>
		<stop  offset="0.9138" style="stop-color:#1F395A"/>
		<stop  offset="1" style="stop-color:#1C3557"/>
	</radialGradient>
	<path class="st3" d="M49.59,55.6v36.75l36.52-17.76c-1.41-9.04-4.61-17.5-9.22-25H55.6C52.29,49.59,49.59,52.28,49.59,55.6z"/>
	<radialGradient id="SVGID_5_" cx="111.0076" cy="122.8071" r="68.7888" gradientUnits="userSpaceOnUse">
		<stop  offset="0" style="stop-color:#3B6986"/>
		<stop  offset="0.9138" style="stop-color:#1F395A"/>
		<stop  offset="1" style="stop-color:#1C3557"/>
	</radialGradient>
	<path class="st4" d="M55.6,136.62h7.58c14.52-12.47,23.74-30.94,23.74-51.54c0-0.86-0.03-1.7-0.06-2.55l-37.27,18.12v29.96
		C49.59,133.93,52.29,136.62,55.6,136.62z"/>
	<path class="st5" d="M145.59,95.05l27.9-14.42v-8.4l-31.35,16.21c-1.8,0.93-4.01,0.3-5.05-1.44l-11.52-19.37
		c-0.97-1.64-0.34-3.76,1.37-4.59l27.65-13.45h-17.07L95.75,69.91c-1.35,0.66-2.93-0.14-3.26-1.6c-1.51-6.61-3.89-12.89-7-18.71
		H76.9c3.92,6.38,6.83,13.45,8.47,20.99c0.5,2.31-0.6,4.67-2.72,5.7L49.59,92.35v8.3l31.95-15.54c0.8-0.35,2.55-0.89,4.08,0.11
		c0.83,0.54,1.14,1.45,1.23,2.27c-0.69,19.62-9.72,37.14-23.67,49.12h10.77C86.61,123.12,94.39,105,94.39,85.08
		c0-0.91-0.02-1.82-0.06-2.73c-0.09-2.08,1.11-3.99,2.98-4.9l16.85-8.19c1.61-0.78,3.56-0.2,4.48,1.34l39.29,66.03h8.68
		l-22.23-37.35C143.5,97.78,144.05,95.85,145.59,95.05z"/>
	<radialGradient id="SVGID_6_" cx="119.0775" cy="118.1524" r="70.2161" gradientUnits="userSpaceOnUse">
		<stop  offset="0" style="stop-color:#3B6986"/>
		<stop  offset="0.9138" style="stop-color:#1F395A"/>
		<stop  offset="1" style="stop-color:#1C3557"/>
	</radialGradient>
	<path class="st6" d="M114.24,69.21l-16.93,8.23c-1.87,0.91-3.07,2.83-2.98,4.9c0.04,0.91,0.06,1.81,0.06,2.73
		c0,19.92-7.78,38.04-20.43,51.54h11.67c2.24,0,4.3,1.25,5.34,3.24l6.29,28.34c0.16,0.58,0.38,1.46,1.39,2.56
		c2.58,2.62,6.8,2.09,9.5-1.58l23.9-29.32h0.05c1.03-1.99,3.09-3.24,5.34-3.24h20.51l-39.33-66.1
		C117.7,69.02,115.81,68.45,114.24,69.21z"/>
	<radialGradient id="SVGID_7_" cx="111.585" cy="124.1065" r="35.9582" gradientUnits="userSpaceOnUse">
		<stop  offset="0" style="stop-color:#EF4B66"/>
		<stop  offset="1" style="stop-color:#E63947"/>
	</radialGradient>
	<path class="st7" d="M132.06,129.86l-6.25-28.17c-0.16-0.74-0.41-1.31-0.62-1.73c-2.21-3.73-7.61-3.27-10.31,0.58l-23.94,29.32
		c-0.95,1.84,0.38,4.03,2.45,4.03h36.21C131.68,133.89,133.01,131.7,132.06,129.86z"/>
</g>
</svg>
